<svg width="20" height="20" viewBox="0 0 20 20" fill="none" xmlns="http://www.w3.org/2000/svg">
<path fill-rule="evenodd" clip-rule="evenodd" d="M3.33398 9.99999C3.33398 9.53975 3.70708 9.16666 4.16732 9.16666H15.834C16.2942 9.16666 16.6673 9.53975 16.6673 9.99999C16.6673 10.4602 16.2942 10.8333 15.834 10.8333H4.16732C3.70708 10.8333 3.33398 10.4602 3.33398 9.99999Z" fill="#3377FF"/>
<path fill-rule="evenodd" clip-rule="evenodd" d="M9.41009 3.57748C9.73553 3.25205 10.2632 3.25205 10.5886 3.57748L16.4219 9.41082C16.7474 9.73625 16.7474 10.2639 16.4219 10.5893L10.5886 16.4227C10.2632 16.7481 9.73553 16.7481 9.41009 16.4227C9.08466 16.0972 9.08466 15.5696 9.41009 15.2441L14.6542 10.0001L9.41009 4.75599C9.08466 4.43056 9.08466 3.90292 9.41009 3.57748Z" fill="#3377FF"/>
</svg>
