<svg width="24" height="24" viewBox="0 0 24 24" fill="none" xmlns="http://www.w3.org/2000/svg">
<path d="M11.9455 2.0545C6.45269 2.0545 2 6.50719 2 12C2 17.4928 6.45269 21.9455 11.9455 21.9455C17.4383 21.9455 21.891 17.4928 21.891 12C21.891 6.50719 17.4383 2.0545 11.9455 2.0545ZM9.51093 16.1222H7.49696V9.64106H9.51093V16.1222ZM8.49151 8.84542C7.85542 8.84542 7.44413 8.39476 7.44413 7.8374C7.44413 7.26864 7.86785 6.83146 8.51741 6.83146C9.16698 6.83146 9.5648 7.26864 9.57723 7.8374C9.57723 8.39476 9.16698 8.84542 8.49151 8.84542ZM16.8665 16.1222H14.8525V12.5304C14.8525 11.6944 14.5603 11.1267 13.832 11.1267C13.2757 11.1267 12.9452 11.511 12.7992 11.8809C12.7453 12.0124 12.7318 12.1989 12.7318 12.3844V16.1212H10.7168V11.7079C10.7168 10.8988 10.6909 10.2223 10.664 9.64003H12.4138L12.506 10.5403H12.5464C12.8116 10.1176 13.4612 9.49395 14.5479 9.49395C15.8729 9.49395 16.8665 10.3818 16.8665 12.2901V16.1222Z" fill="#3377FF"/>
</svg>
