<svg width="1400" height="544" viewBox="0 0 1400 544" fill="none" xmlns="http://www.w3.org/2000/svg">
<path fill-rule="evenodd" clip-rule="evenodd" d="M137.577 0.317047H-2.5079V90.5698H123.064L137.577 81.2196V0.317047ZM152.477 90.5698L138.151 81.3401V0.317047H278.236V90.5698H152.477ZM138.151 100.032L152.263 90.9397H278.236V181.192H138.151V100.032ZM123.278 90.9397L137.577 100.152V181.192H-2.5079V90.9397H123.278ZM-3 0V90.6227V90.8868V181.245V181.509V271.868V272.132V362.49V362.755V453.113V453.377V544H137.659H138.069H278.318H278.728H418.977H419.387H559.636H560.046H700.294H700.705H840.954H841.364H981.613H982.023H1122.27H1122.68H1262.93H1263.34H1404L1404 453.377V362.755V362.49V271.868V181.509V90.8868V90.6227V0H1263.34H1262.93H1122.68H1122.27H982.023H981.613H841.364H840.954H700.705H700.294H560.046H559.636H419.387H418.977H278.728H278.318H138.069H137.659H-3ZM278.81 0.317047H418.895V90.5698H278.81V0.317047ZM559.554 0.317047H419.469V90.5698H559.554V0.317047ZM560.128 0.317047H700.213V90.5698H560.128V0.317047ZM840.871 0.317047H700.787V90.5698H840.871V0.317047ZM841.446 0.317047H981.531V90.5698H841.446V0.317047ZM1122.19 0.317047H982.105V90.5698H1122.19V0.317047ZM1122.76 0.317047H1262.85V90.5698H1122.76V0.317047ZM1403.51 0.317047H1263.42V90.5698H1403.51V0.317047ZM278.81 90.9397H418.895V181.192H278.81V90.9397ZM559.554 90.9397H419.469V181.192H545.463L559.554 172.114V90.9397ZM573.993 181.192L560.128 172.26V90.9397H700.213V181.192H573.993ZM560.128 190.927L574.615 181.593L574.567 181.562H700.213V271.815H560.128V190.927ZM544.889 181.562L544.841 181.593L559.554 191.072V271.815H419.469V181.562H544.889ZM840.871 90.9397H700.787V181.192H840.871V90.9397ZM841.446 90.9397H981.531V181.192H841.446V90.9397ZM1122.19 90.9397H982.105V181.192H1122.19V90.9397ZM1122.76 90.9397H1262.85V156.153L1262.61 156.307L1223.98 181.192H1122.76V90.9397ZM1223.41 181.562H1122.76V262.923L1123.23 262.62L1137.51 271.815H1262.85V207.033L1262.61 206.88L1223.74 181.838L1223.36 181.593L1223.41 181.562ZM1262.85 206.543L1224.12 181.593L1224.17 181.562H1248.15L1248.1 181.593L1262.85 191.093V206.543ZM1263.42 206.846V271.815H1403.51V181.562H1302.57L1302.62 181.593L1302.24 181.838L1263.42 206.846ZM1301.81 181.562L1301.86 181.593L1263.42 206.356V190.906L1277.88 181.593L1277.83 181.562H1301.81ZM1302 181.192H1403.51V90.9397H1263.42V156.34L1302 181.192ZM1263.42 156.83L1301.24 181.192H1277.26L1263.42 172.28V156.83ZM1262.85 156.643L1224.74 181.192H1248.73L1262.85 172.094V156.643ZM1122.76 281.499L1123.23 281.803L1138.12 272.212L1138.08 272.185H1262.85V362.438H1122.76V281.499ZM1108.39 272.185L1108.35 272.212L1122.19 281.13V362.438H982.105V272.185H1108.39ZM1122.19 263.293L1108.96 271.815H982.105V181.562H1122.19V263.293ZM-2.5079 181.562H137.577V271.815H-2.5079V181.562ZM278.236 181.562H138.151V271.815H278.236V181.562ZM278.81 181.562H418.895V271.815H278.81V181.562ZM840.872 181.562H700.787V271.815H840.872V181.562ZM841.446 181.562H981.531V271.815H841.446V181.562ZM-2.5079 272.185H137.577V362.438H-2.5079V272.185ZM278.236 272.185H138.151V362.438H239.53L239.348 362.32L239.728 362.075L278.236 337.265V272.185ZM278.236 337.755L240.108 362.32L240.29 362.438H264.271L264.089 362.32L278.236 353.206V337.755ZM278.81 352.836V337.386L278.976 337.279L317.844 362.32L317.662 362.438H293.681L293.863 362.32L278.976 352.729L278.81 352.836ZM278.81 371.804L278.976 371.911L293.106 362.808H317.087L278.976 387.362L278.81 387.255V371.804ZM264.846 362.808L278.236 371.435V386.885L240.864 362.808H264.846ZM240.104 362.808H138.151V453.06H278.236V387.375L240.104 362.808ZM278.81 387.745V453.06H418.895V362.808H317.848L279.356 387.607L278.976 387.852L278.81 387.745ZM318.422 362.438H418.895V272.185H278.81V336.896L278.976 336.789L279.356 337.034L318.224 362.075L318.604 362.32L318.422 362.438ZM559.554 272.185H419.469V362.438H559.554V272.185ZM560.128 272.185H700.213V362.438H560.128V272.185ZM840.871 272.185H700.787V362.438H840.871V272.185ZM841.446 272.185H981.531V362.438H841.446V272.185ZM1403.51 272.185H1263.42V362.438H1403.51V272.185ZM-2.5079 362.808H137.577V453.06H-2.5079V362.808ZM559.554 362.808H419.469V453.06H559.554V362.808ZM560.128 362.808H700.213V453.06H560.128V362.808ZM840.871 362.808H700.787V453.06H840.871V362.808ZM841.446 362.808H981.531V453.06H841.446V362.808ZM1122.19 362.808H982.105V453.06H1122.19V362.808ZM1122.76 362.808H1262.85V453.06H1122.76V362.808ZM1403.51 362.808H1263.42V453.06H1403.51V362.808ZM-2.5079 453.43H137.577V543.683H-2.5079V453.43ZM278.236 453.43H138.151V543.683H278.236V453.43ZM278.81 453.43H418.895V543.683H278.81V453.43ZM559.554 453.43H419.469V543.683H559.554V453.43ZM560.128 453.43H700.213V543.683H560.128V453.43ZM840.871 453.43H700.787V543.683H840.871V453.43ZM841.446 453.43H981.531V543.683H841.446V453.43ZM1122.19 453.43H982.105V543.683H1122.19V453.43ZM1122.76 453.43H1262.85V543.683H1122.76V453.43ZM1403.51 453.43H1263.42V543.683H1403.51V453.43Z" fill="#E3EDFF" fill-opacity="0.5"/>
</svg>
