<svg width="25" height="25" viewBox="0 0 25 25" fill="none" xmlns="http://www.w3.org/2000/svg">
<path d="M15.8555 12.5C15.8555 13.0933 15.6795 13.6734 15.3499 14.1667C15.0202 14.6601 14.5517 15.0446 14.0035 15.2716C13.4553 15.4987 12.8521 15.5581 12.2702 15.4424C11.6883 15.3266 11.1537 15.0409 10.7341 14.6213C10.3146 14.2018 10.0289 13.6672 9.91311 13.0853C9.79736 12.5033 9.85677 11.9001 10.0838 11.3519C10.3109 10.8038 10.6954 10.3352 11.1888 10.0056C11.6821 9.67595 12.2621 9.5 12.8555 9.5C13.6504 9.50247 14.412 9.81934 14.9741 10.3814C15.5361 10.9435 15.853 11.7051 15.8555 12.5ZM22.2305 8.375V16.625C22.2305 18.0174 21.6773 19.3527 20.6928 20.3373C19.7082 21.3219 18.3729 21.875 16.9805 21.875H8.73047C7.33808 21.875 6.00272 21.3219 5.01816 20.3373C4.03359 19.3527 3.48047 18.0174 3.48047 16.625V8.375C3.48047 6.98261 4.03359 5.64726 5.01816 4.66269C6.00272 3.67812 7.33808 3.125 8.73047 3.125H16.9805C18.3729 3.125 19.7082 3.67812 20.6928 4.66269C21.6773 5.64726 22.2305 6.98261 22.2305 8.375ZM17.3555 12.5C17.3555 11.61 17.0915 10.74 16.5971 9.99993C16.1026 9.25991 15.3998 8.68314 14.5775 8.34254C13.7553 8.00195 12.8505 7.91283 11.9776 8.08647C11.1046 8.2601 10.3028 8.68868 9.67349 9.31802C9.04415 9.94736 8.61557 10.7492 8.44194 11.6221C8.2683 12.495 8.35742 13.3998 8.69801 14.2221C9.03861 15.0443 9.61538 15.7471 10.3554 16.2416C11.0954 16.7361 11.9655 17 12.8555 17C14.0489 17 15.1935 16.5259 16.0374 15.682C16.8814 14.8381 17.3555 13.6935 17.3555 12.5ZM18.8555 7.625C18.8555 7.4025 18.7895 7.18499 18.6659 6.99998C18.5423 6.81498 18.3666 6.67078 18.161 6.58564C17.9554 6.50049 17.7292 6.47821 17.511 6.52162C17.2928 6.56502 17.0923 6.67217 16.935 6.8295C16.7776 6.98684 16.6705 7.18729 16.6271 7.40552C16.5837 7.62375 16.606 7.84995 16.6911 8.05552C16.7763 8.26109 16.9204 8.43679 17.1055 8.5604C17.2905 8.68402 17.508 8.75 17.7305 8.75C18.0288 8.75 18.315 8.63147 18.526 8.4205C18.7369 8.20952 18.8555 7.92337 18.8555 7.625Z" fill="white"/>
</svg>
