<svg width="25" height="25" viewBox="0 0 25 25" fill="none" xmlns="http://www.w3.org/2000/svg">
<path d="M12.801 2.5545C7.30816 2.5545 2.85547 7.00719 2.85547 12.5C2.85547 17.9928 7.30816 22.4455 12.801 22.4455C18.2938 22.4455 22.7465 17.9928 22.7465 12.5C22.7465 7.00719 18.2938 2.5545 12.801 2.5545ZM10.3664 16.6222H8.35243V10.1411H10.3664V16.6222ZM9.34698 9.34542C8.71089 9.34542 8.2996 8.89476 8.2996 8.3374C8.2996 7.76864 8.72332 7.33146 9.37288 7.33146C10.0224 7.33146 10.4203 7.76864 10.4327 8.3374C10.4327 8.89476 10.0224 9.34542 9.34698 9.34542ZM17.7219 16.6222H15.708V13.0304C15.708 12.1944 15.4158 11.6267 14.6875 11.6267C14.1312 11.6267 13.8007 12.011 13.6546 12.3809C13.6008 12.5124 13.5873 12.6989 13.5873 12.8844V16.6212H11.5723V12.2079C11.5723 11.3988 11.5464 10.7223 11.5195 10.14H13.2692L13.3614 11.0403H13.4018C13.6671 10.6176 14.3166 9.99395 15.4034 9.99395C16.7284 9.99395 17.7219 10.8818 17.7219 12.7901V16.6222Z" fill="white"/>
</svg>
