<svg width="32" height="32" viewBox="0 0 32 32" fill="none" xmlns="http://www.w3.org/2000/svg">
<path d="M16.0005 8.5C16.0005 12.6421 12.7112 16 8.65358 16H1.30664V8.5C1.30664 4.35786 4.59597 1 8.65358 1C12.7112 1 16.0005 4.35786 16.0005 8.5Z" fill="#3377FF"/>
<path d="M16 23.5C16 19.3579 19.2893 16 23.3469 16H30.6939V23.5C30.6939 27.6421 27.4045 31 23.3469 31C19.2893 31 16 27.6421 16 23.5Z" fill="#3377FF"/>
<path d="M1.30664 23.5C1.30664 27.6421 4.59597 31 8.65358 31H16.0005V23.5C16.0005 19.3579 12.7112 16 8.65358 16C4.59597 16 1.30664 19.3579 1.30664 23.5Z" fill="#3377FF"/>
<path d="M30.6939 8.5C30.6939 4.35786 27.4045 1 23.3469 1H16V8.5C16 12.6421 19.2893 16 23.3469 16C27.4045 16 30.6939 12.6421 30.6939 8.5Z" fill="#3377FF"/>
</svg>
